<?xml version="1.0" encoding="utf-8"?>
<!-- Generator: Adobe Illustrator 26.5.0, SVG Export Plug-In . SVG Version: 6.00 Build 0)  -->
<svg version="1.1" id="Слой_1" xmlns="http://www.w3.org/2000/svg" xmlns:xlink="http://www.w3.org/1999/xlink" x="0px" y="0px"
	 viewBox="0 0 609.9 153" style="enable-background:new 0 0 609.9 153;" xml:space="preserve">
<style type="text/css">
	.st0{fill-rule:evenodd;clip-rule:evenodd;}
	.st1{fill:none;}
</style>
<path class="st0" d="M83.4,59c0,0,3-0.6,4.3-0.7c1.3-0.2,4.5-0.6,6.1-0.7c3.8-0.3,7.7-0.7,11.5-0.4c1.4,0.1,5.9,0.3,7.6,0.5
	s4.1,0.5,4.7,0.6s4,0.7,4.7,0.9s2.8,0.5,3.4,0.7s1.7,0.6,2.1,1.1c0.4,0.4,0.6,0.6,0.6,1.5s-0.7,1.6-1.2,1.8c-0.4,0.3-2.2,1-3,1.3
	s-4,1.9-5,2.4s-4.9,2.8-6,3.4s-3,2-4.6,3.2s-5.5,4.6-6.3,5.4s-3.7,3.7-3.7,3.7s2.9,6.3,4,9.4c1.2,3.2,3,9.2,3.6,12.4
	c0.6,3.1,1.2,6.5,1.5,8.2s0.8,8.1,0.8,9.7s0.2,3.5,0.1,4.1s-0.7,1.4-1.5,1.6s-1.7,0-2.3-0.6c-0.6-0.6-1.7-2.1-2.3-3
	c-0.7-0.9-3.5-4.4-4.8-5.9c-1.2-1.4-5.7-5.6-7.1-6.7c-1.3-1-4.9-3.7-6-4.5s-5-3.2-5-3.2s-6.5,5.9-8.8,7.6s-8.6,6.4-13.7,9.1
	s-8.2,4.1-10.1,5c-0.8,0.4-3.6,1.8-5.7,2.2c-0.8,0.1-2.3-0.4-2.6-1.5c-0.2-0.9-0.2-1.7,1.8-4.3c2-2.6,3.8-5.3,4.7-6.9
	s3.1-5.4,4.2-8.2c1.2-2.9,2.7-7.2,3.3-9.5s1.2-4.8,1.2-4.8s-2.4-1.1-5.2-2.6c-2.2-1.2-7.9-4.6-9.1-5.3c-2.7-1.6-6.2-4.1-7.7-5.3
	s-8.2-6.9-10.9-9.6s-3.4-3.6-3.4-4.6s0.7-1.9,1.6-2.2s2.2,0.2,3.6,0.5c1.4,0.4,5.8,1.4,7.6,1.7s6.4,0.9,8.9,0.9
	c2.4,0.1,6.9,0.1,9.3-0.1s4.4-0.5,5.3-0.7c0.9-0.2,2.2-0.4,2.2-0.4s0.5-4.4,0.7-6.4c0.7-6.6,3.2-15.6,5.2-21c1.5-4.1,3.7-9.3,5-11.8
	c0.9-1.8,1.4-2.9,2.3-3.2c0.9-0.4,1.9-0.1,2.5,0.4c0.5,0.5,0.9,2,1.1,4.6c0.1,1.3,0.7,4.9,1.4,7.9c0.7,3,1.9,6.9,2.4,8.2
	c0.6,1.5,1.2,3.4,2.3,5.7C80.1,53,83.4,59,83.4,59z M68.1,31.5c-0.6,0.7-0.5,1.5-0.1,1.8s1.2,0.2,1.7-0.4c0.5-0.6,0.5-1.5,0.1-1.8
	C69.3,30.7,68.6,30.7,68.1,31.5z M66.9,37.9c-0.5,0.8-0.3,1.8,0.2,2.1s1.6,0,2.1-0.8s0.4-1.7-0.3-2.1C68.2,36.8,67.4,37.1,66.9,37.9
	z M66.2,44.4c-0.5,1-0.4,2.1,0.4,2.5c0.7,0.4,1.9,0.2,2.6-0.9c0.7-1.1,0.4-2-0.4-2.5C68,43.1,66.7,43.5,66.2,44.4z M66.3,51
	c-0.6,1-0.5,2.5,0.2,3.1c0.8,0.6,2.3,0.2,3-0.9c0.7-1.1,0.6-2.3-0.2-2.9C68.3,49.7,66.9,50,66.3,51z M66.8,58.2
	c-0.5,1.2-0.3,2.8,0.9,3.4c1.2,0.6,2.6-0.4,3.1-1.5c0.4-1.1,0.2-2.8-0.9-3.2S67.3,57.1,66.8,58.2z M68,65.3
	c-0.5,1.2-0.4,3.1,0.9,3.8c1.2,0.8,3.1,0.1,3.7-1.2c0.6-1.3,0.4-3.2-1.1-3.9C70,63.3,68.5,64.1,68,65.3z M70,72.4
	c-0.9,1.5-0.3,3.5,0.9,4.3c1.3,0.9,3.7,0.3,4.4-1.2c0.7-1.4,0.1-3.7-1.2-4.3S71,70.9,70,72.4z M120.5,61.8c-0.6-0.6-1.6-0.3-1.8,0.1
	c-0.2,0.5,0.2,1.1,0.7,1.5c0.5,0.3,1.3,0.5,1.5,0.1C121.3,63.1,121.2,62.4,120.5,61.8z M114,62.1c-1-0.3-1.7,0-1.9,0.7
	c-0.1,0.6,0.5,1.6,1.2,1.9c0.8,0.3,1.8,0.2,2-0.6C115.5,63.3,115,62.5,114,62.1z M107.4,63.1c-1.1-0.2-1.7,0.1-1.9,0.9
	c-0.2,0.8,0.6,1.9,1.6,2.2c1,0.3,2,0.2,2.2-0.9C109.4,64.3,108.4,63.3,107.4,63.1z M101.6,64.9c-1-0.5-2.6-0.2-2.9,1s0.7,2.3,2,2.7
	c1.3,0.4,2.2-0.2,2.4-1.3C103.3,66.3,102.6,65.4,101.6,64.9z M96.9,70.1c0.2-0.8,0-2.3-1.6-2.9c-1.5-0.6-3,0-3.4,1.3
	s0.8,2.8,2.1,3.1C95.5,71.9,96.6,71.3,96.9,70.1z M88.7,70.1c-1.6-0.5-3.2,0.3-3.6,1.7c-0.4,1.4,0.6,2.8,2,3.3s3.3-0.4,3.5-1.7
	S90.2,70.6,88.7,70.1z M82.2,73.8c-2.1-0.5-3.3,0.7-3.7,2.1c-0.3,1.4,0.7,3.4,2.3,3.7c1.6,0.3,3.3-0.5,3.6-1.9
	C84.7,76.3,84.2,74.3,82.2,73.8z M105.6,120.9c0.2-0.9-0.2-1.5-0.7-1.7c-0.5-0.1-1.1,0.4-1.4,1.1c-0.2,0.7,0.2,1.6,0.7,1.7
	C104.8,122.2,105.4,121.8,105.6,120.9z M103.7,114.8c0.1-1-0.5-1.7-1.1-1.8c-0.7,0-1.4,0.7-1.5,1.6c-0.1,1,0.3,1.7,1.1,1.7
	C103,116.4,103.6,115.8,103.7,114.8z M101.1,108.8c0-1.1-0.6-2-1.4-2.1c-0.9-0.1-1.8,0.7-1.9,1.9c-0.1,1.3,0.5,2,1.4,2.1
	C100,110.9,101.1,109.9,101.1,108.8z M97.8,103.1c0.1-1.2-0.6-2.5-1.5-2.7s-2.1,0.8-2.3,2.1c-0.1,1.3,0.4,2.4,1.5,2.5
	C96.5,105.1,97.7,104.2,97.8,103.1z M94.1,96.9c0-1.3-0.9-2.7-2.3-2.7c-1.3,0-2.2,1.5-2.1,2.7s1,2.6,2.2,2.5
	C93.1,99.4,94.1,98.2,94.1,96.9z M89.7,91.5c0-1.3-1-2.9-2.4-3.1c-1.4-0.1-2.8,1.2-2.8,2.7s1.1,3.1,2.7,3
	C88.7,94.2,89.7,92.9,89.7,91.5z M84.2,86.5c0.2-1.7-1.1-3.3-2.6-3.5s-3.3,1.3-3.3,2.9s1.4,3.3,2.8,3.4C82.6,89.4,84,88.3,84.2,86.5
	z M46.2,124.2c0.9-0.1,1.4-1,1.2-1.5s-1-0.6-1.6-0.5c-0.6,0.2-1.3,0.6-1.2,1.1C44.7,123.9,45.4,124.3,46.2,124.2z M52.1,120
	c0.9-0.5,1.1-1.3,0.8-1.8c-0.4-0.5-1.5-0.8-2.2-0.4s-1.4,1.2-0.9,1.8C50.2,120.3,51.1,120.5,52.1,120z M57.6,115
	c0.8-0.8,0.8-1.5,0.2-2.1s-1.9-0.5-2.7,0.1c-0.8,0.7-1.2,1.6-0.4,2.3C55.5,116.1,56.9,115.8,57.6,115z M61.7,110.4
	c1.1-0.4,1.9-1.7,1.3-2.8c-0.6-1-2.1-1.2-3.3-0.5c-1.2,0.6-1.4,1.7-0.8,2.6C59.5,110.6,60.6,110.7,61.7,110.4z M62.9,103.5
	c0.3,0.8,1.4,1.8,3,1.4s2.4-1.8,2-3.1c-0.4-1.2-2.3-1.8-3.5-1.2C63,101.3,62.4,102.4,62.9,103.5z M69.9,98.6c1.6-0.5,2.5-2,2-3.4
	c-0.4-1.4-2-1.9-3.5-1.6c-1.5,0.4-2.6,2.2-2,3.4C67,98.3,68.3,99.1,69.9,98.6z M74.6,91.1c1.6-1.4,1.2-3.2,0.2-4.2s-3.2-1.3-4.3-0.2
	c-1.1,1.1-1.5,3-0.4,4.1C71.1,91.8,73,92.5,74.6,91.1z M24.5,70.6c0.4,0.8,1.1,1.1,1.6,0.8c0.5-0.2,0.6-1,0.3-1.7
	c-0.3-0.7-1.2-1-1.7-0.8C24.3,69.1,24.1,69.7,24.5,70.6z M30.4,74c0.6,0.8,1.5,1,2,0.6c0.5-0.4,0.6-1.4,0.1-2.2
	c-0.6-0.8-1.4-1.1-2-0.6C29.8,72.3,29.8,73.2,30.4,74z M36.4,76.9c0.7,0.8,1.8,1.2,2.5,0.7s0.9-1.7,0.2-2.7
	c-0.7-1.1-1.7-1.2-2.4-0.7C35.8,74.7,35.7,76.1,36.4,76.9z M42.9,79.2c0.7,1,2.1,1.5,2.9,1c0.8-0.5,1.1-2,0.4-3.1
	c-0.7-1.1-1.9-1.5-2.8-0.9C42.5,76.8,42.2,78.2,42.9,79.2z M49.9,81c0.9,0.9,2.5,1.4,3.5,0.5s0.7-2.6-0.1-3.4
	c-0.9-0.8-2.5-1.3-3.3-0.5C49,78.5,49,80.1,49.9,81z M57.3,82.8c0.9,1,2.7,1.6,3.8,0.7c1.2-0.8,1.3-2.8,0.4-3.9
	c-1-1.1-2.8-1.6-4-0.5S56.4,81.8,57.3,82.8z M64.9,83.3c1,1.4,3,1.7,4.2,0.9c1.2-0.8,1.6-3.1,0.6-4.3c-1-1.2-3.3-1.6-4.4-0.7
	C64.2,80.1,63.9,81.9,64.9,83.3z"/>
<path d="M471.5,24.1c1.1,0,1.8,0,2.8,0c0,1.5,0,2.9,0,4.2c0,8.8,0.1,17.6,0,26.4c-0.1,7.1-2.9,12.7-9.5,15.6c-2.2,0.9-5.2,1-8.2,1
	c-3.4,0-6.8-0.3-9.8-1.4c-2.5-0.9-4.5-2.5-5.9-4.2c-3.1-3.3-3.7-7.5-3.8-11.6c0-0.3,0-1,0-1V24c0,0,3.9,0,6.1,0c0,1.1,0,2,0,2.9
	c0,9.3,0,18.6,0,27.9c0,4.3,1.6,8,4.2,10.4c2.1,2,4.9,3.1,8.1,3.2c2.7,0.1,5.1-0.3,7.2-1.1c5.2-1.9,8.4-6.2,8.6-12.1
	c0.3-9.3,0.1-18.6,0.2-27.9C471.5,26.4,471.5,25.3,471.5,24.1z"/>
<path d="M217.2,23.9h18c0,0,6.3,0.8,10.6,6.6c2.1,2.8,2.3,6.3,2,9.1c-0.5,4.5-3,8.6-7,10.7c-1.3,0.7-2.8,1.3-4.6,1.7
	c-2.2,0.6-4.2,0.7-5.8,0.7c-4.3-0.1-7.2-1-7.2-1v19.5h-5.6L217.2,23.9z M223.2,48.5c0,0,5.2,2.6,11.6,0c6.3-2.5,8.1-7.4,6.7-13.2
	s-5.5-7.6-8.3-8c-2.5-0.4-10,0-10,0V48.5z"/>
<path d="M258.2,24c0,0,14.2-0.4,18.9,0.4c0.8,0.1,1.8,0.2,3.2,0.8c1.3,0.6,2.2,1.2,2.9,1.6c1.9,1.2,4.4,3.8,4.9,7.9
	c0.4,4.1-0.1,6.4-1,8.2c-0.3,0.6-0.9,1.4-1.6,2.1c-1,1-2.2,1.9-3.1,2.5c-1.3,0.9-6,2-6,2c3.1,1.7,5.6,6.2,5.6,6.2s3.6,6.4,5.2,8.3
	c0.8,1.1,1.8,2.3,2.8,3.1c0.9,0.7,1.4,0.7,1.9,0.8c1,0.3,4,0.3,4,0.3V71c0,0-5.8,0.7-8.2-0.3s-3.9-2.9-3.9-2.9l-3.8-5.4
	c0,0-6.3-9.7-7.4-10.7s-3.9-1.3-3.9-1.3h-4.5v20.7h-5.9V24H258.2z M264.1,27.4v19.8c0,0,7.9,0.6,10.5,0c1.5-0.4,3.6-1.8,5.2-3.6
	s2.2-4.2,2.2-5.1c0-0.4,0.1-1.2,0.1-2.1c0-0.9-0.2-1.9-0.2-2.4c-0.1-1.1-1.4-3.8-4.4-5.3c-2-1-3.3-1.3-4.4-1.3
	C272.6,27.4,264.1,27.4,264.1,27.4z"/>
<polygon points="305.3,23.9 305.3,71.3 335.3,71.2 335.3,67.1 311.5,67.1 311.5,47.9 332,47.9 332,44.7 311.5,44.7 311.5,28.3 
	335.3,28.3 335.3,23.9 "/>
<polygon points="344.9,23.9 344.9,71.3 348.6,71.3 348.6,33.6 368.7,71.3 369.9,71.3 390.9,33.4 390.9,71.3 397,71.3 397,23.9 
	392.8,23.9 370.9,64 349.6,23.9 "/>
<rect x="415.3" y="23.9" width="6.5" height="47.5"/>
<polygon points="487.3,24 487.3,71.4 491,71.4 491,33.6 511,71.4 512.3,71.4 533.3,33.4 533.3,71.4 539.3,71.4 539.3,24 535.1,24 
	513.3,64.1 492,24 "/>
<g>
	<path d="M470.4,115h4.3c0,0-0.1,1.2,0.4,2.6c0.7,2.1,2.4,3.6,4.4,4.4c3.5,1.5,7.1,1.5,10.7,0.6c3.2-0.8,5.5-2.5,5.9-6
		c0.3-3.4-1.2-6-4.3-7.5c-3.7-1.8-7.6-3.2-11.5-4.8c-2.9-1.2-5.9-2.7-7.3-5.7c-2.4-5-0.8-10,4.1-13c4.6-2.8,10.9-2.7,16-0.6
		c1.5,0.6,3.3,1.9,4.1,2.8c0.4,0.4,1.2,1.4,1.7,2.5c0.6,1.2,1.1,2.6,1.1,2.6h-4.3c0,0,0.4-1.2-0.5-2.3c-1.3-2-2.9-3.3-5.1-3.9
		c-3.5-1-6.9-0.9-10.3,0.8c-2.1,1.1-3.4,2.8-3.5,5.2c-0.1,2.4,1.1,4.3,3.2,5.2c3.7,1.7,7.6,2.9,11.3,4.7c2.7,1.2,5.4,2.6,7.5,4.6
		c4.4,4.3,3.8,11-0.7,15c-6,5.3-19.5,4.4-24.7-1.8C471.8,119.1,470.4,115,470.4,115z"/>
	<polygon points="285.1,83.7 285.1,125.8 311.7,125.7 311.7,122.1 290.6,122.1 290.6,105 308.8,105 308.8,102.2 290.6,102.2 
		290.6,87.6 311.7,87.6 311.7,83.7 	"/>
	<polygon points="440.5,83.7 440.5,125.8 467.2,125.7 467.2,122.1 446.1,122.1 446.1,105 464.3,105 464.3,102.2 446.1,102.2 
		446.1,87.6 467.2,87.6 467.2,83.7 	"/>
	<path d="M319.5,83.7h5.8v38.4v0.2v3.6h-5.8V83.7z M346.5,122h-21.2v3.7h21.2V122z"/>
	<path d="M354.9,83.7h5.8v38.5v0.2v3.6h-5.8V83.7z M381.8,122.1h-21.2v3.7h21.2V122.1z"/>
	<polygon points="217.2,83.7 223.1,83.6 235,117.9 246.6,83.7 249.4,83.7 260.7,117.9 273.2,83.7 276.3,83.7 261.7,125.7 
		257.7,125.7 246.7,93.5 235.7,125.7 231.8,125.7 	"/>
	<polygon points="390.3,83.7 390.3,125.8 393.7,125.8 393.7,94.6 425.9,125.8 425.9,83.7 423.3,83.7 423.3,115.2 391.3,83.7 	"/>
	<path d="M508.3,115.6h4.3c0,0-0.1,1.2,0.4,2.6c0.7,2.1,2.4,3.6,4.4,4.4c3.5,1.5,7.1,1.5,10.7,0.6c3.2-0.8,5.5-2.5,5.9-6
		c0.3-3.4-1.2-6-4.3-7.5c-3.7-1.8-7.6-3.2-11.5-4.8c-2.9-1.2-5.9-2.7-7.3-5.7c-2.4-5-0.8-10,4.1-13c4.6-2.8,10.9-2.7,16-0.6
		c1.5,0.6,3.3,1.9,4.1,2.8c0.4,0.4,1.2,1.4,1.7,2.5c0.6,1.2,1.1,2.6,1.1,2.6h-4.3c0,0,0.4-1.2-0.5-2.3c-1.3-2-2.9-3.3-5.1-3.9
		c-3.5-1-6.9-0.9-10.3,0.8c-2.1,1.1-3.4,2.8-3.5,5.2c-0.1,2.4,1.1,4.3,3.2,5.2c3.7,1.7,7.6,2.9,11.3,4.7c2.7,1.2,5.4,2.6,7.5,4.6
		c4.4,4.3,3.8,11-0.7,15c-6,5.3-19.5,4.4-24.7-1.8C509.7,119.7,508.3,115.6,508.3,115.6z"/>
</g>
<g>
	<rect x="169.9" y="23.9" width="6" height="104.4"/>
</g>
</svg>
